<svg xmlns="http://www.w3.org/2000/svg" viewBox="0 0 128.37 217.78"><g id="Layer_2" data-name="Layer 2"><g id="Layer_1-2" data-name="Layer 1"><path d="M76.74,8.12c0-5.1,2.1-8.1,8.1-8.1h13a6.14,6.14,0,0,1,4,1.1,6.07,6.07,0,0,1,2,3.72,25.2,25.2,0,0,1,0,9,6.17,6.17,0,0,1-2,3.71,6.38,6.38,0,0,1-4,1.1h-3V38.27a51.83,51.83,0,0,1,6.48,25.4A49.64,49.64,0,0,1,89.55,96.06c3.76,4.42,7.44,10.35,7.44,17.21a19.82,19.82,0,0,1-1.11,6.47,51.53,51.53,0,0,1,32.49,48c0,28-22.28,50-50.33,50S27,195.85,27,167.78a51.69,51.69,0,0,1,42.32-50.61c5.81-1.16,7.51-3.91,7.51-6.64a8.82,8.82,0,0,0-.76-3.4A51.11,51.11,0,0,1,51,113.6c-28,0-51-21.93-51-50S23,12.19,51,12.19a50.65,50.65,0,0,1,25.74,7Zm-26.4,84.6a30,30,0,1,0-30-30h0a30.09,30.09,0,0,0,30,30Zm28.2,105a30,30,0,1,0-30-30h0a30.09,30.09,0,0,0,30,30Z"/></g></g></svg>