<svg id="Layer_1" data-name="Layer 1" xmlns="http://www.w3.org/2000/svg"
  viewBox="0 0 488.11 280.14">
  <path class="cls-1"
    d="M634.66,515.34c0-5.1,2.1-8.1,8.1-8.1h13a6.22,6.22,0,0,1,4,1.1,6.09,6.09,0,0,1,2,3.72,25,25,0,0,1,0,9,6.12,6.12,0,0,1-2,3.71,6.37,6.37,0,0,1-4,1.1h-3v19.62a51.93,51.93,0,0,1,6.48,25.4,49.63,49.63,0,0,1-11.77,32.39c3.76,4.42,7.44,10.35,7.44,17.21a19.7,19.7,0,0,1-1.11,6.47A51.53,51.53,0,0,1,686.29,675c0,28-22.28,50-50.33,50s-51.05-21.93-51.05-50a51.7,51.7,0,0,1,42.32-50.61c5.81-1.16,7.51-3.91,7.51-6.64a8.88,8.88,0,0,0-.76-3.4,51,51,0,0,1-25.06,6.47c-28,0-51-21.93-51-50s23-51.41,51-51.41a50.73,50.73,0,0,1,25.74,7Zm-26.4,84.6a30,30,0,1,0-30-30A30.09,30.09,0,0,0,608.26,599.94Zm28.2,105a30,30,0,1,0-30-30A30.09,30.09,0,0,0,636.46,704.94Z"
    transform="translate(-557.87 -444.84)" />
  <path class="cls-1"
    d="M720.15,534.84h23.1c7.5,0,11.4,3.9,11.4,11.4s-3.9,11.1-11.4,11.1h-23.1v94.2c0,7.5-3.9,11.4-11.4,11.4s-11.1-3.9-11.1-11.4v-94.2h-21c-7.5,0-11.1-3.6-11.1-11.1s3.6-11.4,11.1-11.4h21v-54c0-8.7,4.2-17.1,12.6-24.6s18-11.4,28.8-11.4c11.1,0,21.3,3,30,9.3,9.9,6.9,15,15.9,15,27.3v11.1c0,7.5-3.9,11.4-11.4,11.4s-11.1-3.9-11.1-11.4v-11.1q0-4.95-5.4-9c-4.5-3.3-10.2-5.1-17.1-5.1-7.2,0-17.1,5.7-19.2,12.6Z"
    transform="translate(-557.87 -444.84)" />
  <path class="cls-1"
    d="M815.55,534.84h23.1c7.5,0,11.4,3.9,11.4,11.4s-3.9,11.1-11.4,11.1h-23.1v94.2c0,7.5-3.9,11.4-11.4,11.4s-11.1-3.9-11.1-11.4v-94.2h-21c-7.5,0-11.1-3.6-11.1-11.1s3.6-11.4,11.1-11.4h21v-54c0-8.7,4.2-17.1,12.6-24.6s18-11.4,28.8-11.4c11.1,0,21.3,3,30,9.3,9.9,6.9,15,15.9,15,27.3v11.1c0,7.5-3.9,11.4-11.4,11.4S857,500,857,492.54v-11.1q0-4.95-5.4-9c-4.5-3.3-10.2-5.1-17.1-5.1-7.2,0-17.1,5.7-19.2,12.6Z"
    transform="translate(-557.87 -444.84)" />
  <path class="cls-1"
    d="M911,534.84h23.1c7.5,0,11.4,3.9,11.4,11.4s-3.9,11.1-11.4,11.1H911v94.2c0,7.5-3.9,11.4-11.4,11.4s-11.1-3.9-11.1-11.4v-94.2h-21c-7.5,0-11.1-3.6-11.1-11.1s3.6-11.4,11.1-11.4h21v-54c0-8.7,4.2-17.1,12.6-24.6s18-11.4,28.8-11.4c11.1,0,21.3,3,30,9.3,9.9,6.9,15,15.9,15,27.3v11.1c0,7.5-3.9,11.4-11.4,11.4s-11.1-3.9-11.1-11.4v-11.1q0-4.95-5.4-9c-4.5-3.3-10.2-5.1-17.1-5.1-7.2,0-17.1,5.7-19.2,12.6Z"
    transform="translate(-557.87 -444.84)" />
  <path class="cls-1"
    d="M989.88,638.34l.6-81H968c-7.5,0-11.1-3.6-11.1-11.1s3.6-11.4,11.1-11.4h22.8l-.3-21.9c0-7.5,3.6-11.1,11.1-11.1s11.4,3.6,11.4,11.1l.3,21.9h21.3c7.5,0,11.4,3.9,11.4,11.4s-3.9,11.1-11.4,11.1H1013l-.3,80.7c0,8.4,13.8,8.4,13.8,0V626c0-9,18.6-9,18.6,0v12.3C1045.08,669.84,989.61,669.84,989.88,638.34Z"
    transform="translate(-557.87 -444.84)" />
</svg>
