<svg xmlns="http://www.w3.org/2000/svg" viewBox="0 0 643.17 373.5"><title>Asset 1</title><g id="Layer_2" data-name="Layer 2"><g id="Layer_1-2" data-name="Layer 1"><path d="M102.38,94c0-6.8,2.8-10.8,10.8-10.8H130.5a8.27,8.27,0,0,1,5.4,1.47,8.09,8.09,0,0,1,2.6,5,33.38,33.38,0,0,1,0,12,8.07,8.07,0,0,1-2.61,5A8.42,8.42,0,0,1,130.5,108h-4v26.15A69.29,69.29,0,0,1,135.17,168a66.26,66.26,0,0,1-15.69,43.18c5,5.9,9.92,13.81,9.92,23a26.13,26.13,0,0,1-1.48,8.61c25.44,9.88,43.31,35.12,43.31,64.11,0,37.39-29.72,66.62-67.11,66.62s-68.06-29.23-68.06-66.62A68.93,68.93,0,0,1,92.48,239.4c7.75-1.54,10-5.2,10-8.84a12,12,0,0,0-1-4.54,68.07,68.07,0,0,1-33.42,8.62C30.68,234.64,0,205.4,0,168S30.68,99.47,68.06,99.47a67.64,67.64,0,0,1,34.32,9.33ZM67.18,206.8a40,40,0,1,0-40-40A40.12,40.12,0,0,0,67.18,206.8Zm37.6,140a40,40,0,1,0-40-40A40.12,40.12,0,0,0,104.78,346.79Z"/><path d="M216.37,120h30.8c10,0,15.2,5.2,15.2,15.2s-5.2,14.8-15.2,14.8h-30.8V275.6c0,10-5.2,15.2-15.2,15.2s-14.8-5.2-14.8-15.2V150h-28c-10,0-14.8-4.8-14.8-14.8s4.8-15.2,14.8-15.2h28V48c0-11.6,5.6-22.8,16.8-32.8S227.17,0,241.57,0c14.8,0,28.4,4,40,12.4,13.2,9.2,20,21.2,20,36.4V63.6c0,10-5.2,15.2-15.2,15.2s-14.8-5.2-14.8-15.2V48.8q0-6.6-7.2-12c-6-4.4-13.6-6.8-22.8-6.8-9.6,0-22.8,7.6-25.6,16.8Z"/><path d="M343.57,120h30.8c10,0,15.2,5.2,15.2,15.2s-5.2,14.8-15.2,14.8h-30.8V275.6c0,10-5.2,15.2-15.2,15.2s-14.8-5.2-14.8-15.2V150h-28c-10,0-14.8-4.8-14.8-14.8s4.8-15.2,14.8-15.2h28V48c0-11.6,5.6-22.8,16.8-32.8S354.37,0,368.77,0c14.8,0,28.4,4,40,12.4,13.2,9.2,20,21.2,20,36.4V63.6c0,10-5.2,15.2-15.2,15.2s-14.8-5.2-14.8-15.2V48.8q0-6.6-7.2-12c-6-4.4-13.6-6.8-22.8-6.8-9.6,0-22.8,7.6-25.6,16.8Z"/><path d="M470.77,120h30.8c10,0,15.2,5.2,15.2,15.2s-5.2,14.8-15.2,14.8h-30.8V275.6c0,10-5.2,15.2-15.2,15.2s-14.8-5.2-14.8-15.2V150h-28c-10,0-14.8-4.8-14.8-14.8s4.8-15.2,14.8-15.2h28V48c0-11.6,5.6-22.8,16.8-32.8S481.57,0,496,0c14.8,0,28.4,4,40,12.4,13.2,9.2,20,21.2,20,36.4V63.6c0,10-5.2,15.2-15.2,15.2S526,73.6,526,63.6V48.8q0-6.6-7.2-12c-6-4.4-13.6-6.8-22.8-6.8-9.6,0-22.8,7.6-25.6,16.8Z"/><path d="M568.37,258l.8-108h-30c-10,0-14.8-4.8-14.8-14.8s4.8-15.2,14.8-15.2h30.4l-.4-29.2c0-10,4.8-14.8,14.8-14.8s15.2,4.8,15.2,14.8l.4,29.2H628c10,0,15.21,5.2,15.21,15.2S638,150,628,150H599.17l-.4,107.6c0,11.2,18.4,11.2,18.4,0v-16c0-12,24.79-12,24.79,0V258C642,300,568,300,568.37,258Z"/></g></g></svg>
