<?xml version="1.0" encoding="utf-8"?>
<!-- Generator: Adobe Illustrator 26.0.1, SVG Export Plug-In . SVG Version: 6.00 Build 0)  -->
<svg version="1.1" id="Layer_1" xmlns="http://www.w3.org/2000/svg" xmlns:xlink="http://www.w3.org/1999/xlink" x="0px" y="0px"
	 viewBox="0 0 643.2 373.5" style="enable-background:new 0 0 643.2 373.5;" xml:space="preserve">
<style type="text/css">
	.st0{fill:#0085A1;}
</style>
<g id="Layer_2_00000072243980468242926840000002017154466946661761_">
	<g id="Layer_1-2">
		<path class="st0" d="M102.4,94c0-6.8,2.8-10.8,10.8-10.8h17.3c1.9-0.2,3.8,0.4,5.4,1.5c1.4,1.3,2.4,3.1,2.6,5c0.7,4,0.7,8,0,12
			c-0.2,1.9-1.2,3.7-2.6,5c-1.6,1-3.5,1.5-5.4,1.3h-4v26.1c5.7,10.4,8.7,22,8.7,33.9c0.1,15.8-5.5,31.1-15.7,43.2
			c5,5.9,9.9,13.8,9.9,23c0,2.9-0.5,5.8-1.5,8.6c25.4,9.9,43.3,35.1,43.3,64.1c0,37.4-29.7,66.6-67.1,66.6s-68.1-29.2-68.1-66.6
			c0.1-33.1,23.8-61.5,56.4-67.5c7.8-1.5,10-5.2,10-8.8c0-1.6-0.4-3.1-1-4.5c-10.2,5.7-21.7,8.7-33.4,8.6C30.7,234.6,0,205.4,0,168
			s30.7-68.5,68.1-68.5c12.1,0,23.9,3.2,34.3,9.3V94z M67.2,206.8c22.1,0,40-17.9,40-40s-17.9-40-40-40s-40,17.9-40,40
			C27.2,188.9,45.1,206.7,67.2,206.8z M104.8,346.8c22.1,0,40-17.9,40-40s-17.9-40-40-40s-40,17.9-40,40
			C64.9,328.9,82.7,346.7,104.8,346.8L104.8,346.8z"/>
		<path class="st0" d="M216.4,120h30.8c10,0,15.2,5.2,15.2,15.2s-5.2,14.8-15.2,14.8h-30.8v125.6c0,10-5.2,15.2-15.2,15.2
			s-14.8-5.2-14.8-15.2V150h-28c-10,0-14.8-4.8-14.8-14.8s4.8-15.2,14.8-15.2h28V48c0-11.6,5.6-22.8,16.8-32.8S227.2,0,241.6,0
			c14.8,0,28.4,4,40,12.4c13.2,9.2,20,21.2,20,36.4v14.8c0,10-5.2,15.2-15.2,15.2s-14.8-5.2-14.8-15.2V48.8c0-4.4-2.4-8.4-7.2-12
			c-6-4.4-13.6-6.8-22.8-6.8c-9.6,0-22.8,7.6-25.6,16.8L216.4,120z"/>
		<path class="st0" d="M343.6,120h30.8c10,0,15.2,5.2,15.2,15.2s-5.2,14.8-15.2,14.8h-30.8v125.6c0,10-5.2,15.2-15.2,15.2
			s-14.8-5.2-14.8-15.2V150h-28c-10,0-14.8-4.8-14.8-14.8s4.8-15.2,14.8-15.2h28V48c0-11.6,5.6-22.8,16.8-32.8S354.4,0,368.8,0
			c14.8,0,28.4,4,40,12.4c13.2,9.2,20,21.2,20,36.4v14.8c0,10-5.2,15.2-15.2,15.2s-14.8-5.2-14.8-15.2V48.8c0-4.4-2.4-8.4-7.2-12
			c-6-4.4-13.6-6.8-22.8-6.8c-9.6,0-22.8,7.6-25.6,16.8L343.6,120z"/>
		<path class="st0" d="M470.8,120h30.8c10,0,15.2,5.2,15.2,15.2s-5.2,14.8-15.2,14.8h-30.8v125.6c0,10-5.2,15.2-15.2,15.2
			s-14.8-5.2-14.8-15.2V150h-28c-10,0-14.8-4.8-14.8-14.8s4.8-15.2,14.8-15.2h28V48c0-11.6,5.6-22.8,16.8-32.8S481.6,0,496,0
			c14.8,0,28.4,4,40,12.4c13.2,9.2,20,21.2,20,36.4v14.8c0,10-5.2,15.2-15.2,15.2S526,73.6,526,63.6V48.8c0-4.4-2.4-8.4-7.2-12
			c-6-4.4-13.6-6.8-22.8-6.8c-9.6,0-22.8,7.6-25.6,16.8L470.8,120z"/>
		<path class="st0" d="M568.4,258l0.8-108h-30c-10,0-14.8-4.8-14.8-14.8s4.8-15.2,14.8-15.2h30.4l-0.4-29.2c0-10,4.8-14.8,14.8-14.8
			s15.2,4.8,15.2,14.8l0.4,29.2H628c10,0,15.2,5.2,15.2,15.2S638,150,628,150h-28.8l-0.4,107.6c0,11.2,18.4,11.2,18.4,0v-16
			c0-12,24.8-12,24.8,0V258C642,300,568,300,568.4,258z"/>
	</g>
</g>
</svg>
