<?xml version="1.0" encoding="utf-8"?>
<svg xmlns="http://www.w3.org/2000/svg" xmlns:xlink="http://www.w3.org/1999/xlink" style="margin: auto; background: rgb(241, 242, 243); display: block; shape-rendering: auto;" width="320px" height="320px" viewBox="0 0 100 100" preserveAspectRatio="xMidYMid">
<g transform="rotate(0 50 50)">
  <rect x="49" y="18.5" rx="0" ry="0" width="2" height="11" fill="#4d92fa">
    <animate attributeName="opacity" values="1;0" keyTimes="0;1" dur="12.5s" begin="-11.458333333333334s" repeatCount="indefinite"></animate>
  </rect>
</g><g transform="rotate(30 50 50)">
  <rect x="49" y="18.5" rx="0" ry="0" width="2" height="11" fill="#4d92fa">
    <animate attributeName="opacity" values="1;0" keyTimes="0;1" dur="12.5s" begin="-10.416666666666668s" repeatCount="indefinite"></animate>
  </rect>
</g><g transform="rotate(60 50 50)">
  <rect x="49" y="18.5" rx="0" ry="0" width="2" height="11" fill="#4d92fa">
    <animate attributeName="opacity" values="1;0" keyTimes="0;1" dur="12.5s" begin="-9.375s" repeatCount="indefinite"></animate>
  </rect>
</g><g transform="rotate(90 50 50)">
  <rect x="49" y="18.5" rx="0" ry="0" width="2" height="11" fill="#4d92fa">
    <animate attributeName="opacity" values="1;0" keyTimes="0;1" dur="12.5s" begin="-8.333333333333334s" repeatCount="indefinite"></animate>
  </rect>
</g><g transform="rotate(120 50 50)">
  <rect x="49" y="18.5" rx="0" ry="0" width="2" height="11" fill="#4d92fa">
    <animate attributeName="opacity" values="1;0" keyTimes="0;1" dur="12.5s" begin="-7.291666666666667s" repeatCount="indefinite"></animate>
  </rect>
</g><g transform="rotate(150 50 50)">
  <rect x="49" y="18.5" rx="0" ry="0" width="2" height="11" fill="#4d92fa">
    <animate attributeName="opacity" values="1;0" keyTimes="0;1" dur="12.5s" begin="-6.25s" repeatCount="indefinite"></animate>
  </rect>
</g><g transform="rotate(180 50 50)">
  <rect x="49" y="18.5" rx="0" ry="0" width="2" height="11" fill="#4d92fa">
    <animate attributeName="opacity" values="1;0" keyTimes="0;1" dur="12.5s" begin="-5.208333333333334s" repeatCount="indefinite"></animate>
  </rect>
</g><g transform="rotate(210 50 50)">
  <rect x="49" y="18.5" rx="0" ry="0" width="2" height="11" fill="#4d92fa">
    <animate attributeName="opacity" values="1;0" keyTimes="0;1" dur="12.5s" begin="-4.166666666666667s" repeatCount="indefinite"></animate>
  </rect>
</g><g transform="rotate(240 50 50)">
  <rect x="49" y="18.5" rx="0" ry="0" width="2" height="11" fill="#4d92fa">
    <animate attributeName="opacity" values="1;0" keyTimes="0;1" dur="12.5s" begin="-3.125s" repeatCount="indefinite"></animate>
  </rect>
</g><g transform="rotate(270 50 50)">
  <rect x="49" y="18.5" rx="0" ry="0" width="2" height="11" fill="#4d92fa">
    <animate attributeName="opacity" values="1;0" keyTimes="0;1" dur="12.5s" begin="-2.0833333333333335s" repeatCount="indefinite"></animate>
  </rect>
</g><g transform="rotate(300 50 50)">
  <rect x="49" y="18.5" rx="0" ry="0" width="2" height="11" fill="#4d92fa">
    <animate attributeName="opacity" values="1;0" keyTimes="0;1" dur="12.5s" begin="-1.0416666666666667s" repeatCount="indefinite"></animate>
  </rect>
</g><g transform="rotate(330 50 50)">
  <rect x="49" y="18.5" rx="0" ry="0" width="2" height="11" fill="#4d92fa">
    <animate attributeName="opacity" values="1;0" keyTimes="0;1" dur="12.5s" begin="0s" repeatCount="indefinite"></animate>
  </rect>
</g>
<!-- [ldio] generated by https://loading.io/ --></svg>